<svg xmlns="http://www.w3.org/2000/svg" width="1200" height="900" viewBox="0 0 1200 900">
  <defs><linearGradient id="bg" x1="0" y1="0" x2="1" y2="1"><stop stop-color="#101b1a"/><stop offset="1" stop-color="#31423e"/></linearGradient><filter id="s"><feDropShadow dx="0" dy="20" stdDeviation="25" flood-opacity=".32"/></filter></defs>
  <rect width="1200" height="900" fill="url(#bg)"/>
  <text x="105" y="110" font-family="Arial,sans-serif" font-size="22" letter-spacing="4" fill="#d9c29c">ANDORA APARTMENTS</text>
  <text x="105" y="165" font-family="Georgia,serif" font-size="58" fill="#f5f0e8">Instagram grid system</text>
  <g transform="translate(323 205)" filter="url(#s)">
    <rect width="554" height="590" rx="34" fill="#f5f0e8"/>
    <g transform="translate(38 55)">
      <rect width="150" height="150" fill="#d4c3a7"/><path d="M0 150 92 52l58 63v35Z" fill="#677d74"/><circle cx="118" cy="38" r="19" fill="#efe9df"/>
      <rect x="164" width="150" height="150" fill="#1c2c29"/><text x="239" y="68" text-anchor="middle" font-family="Georgia,serif" font-size="42" fill="#d9c29c">A</text><text x="239" y="104" text-anchor="middle" font-family="Arial,sans-serif" font-size="10" letter-spacing="2" fill="#f5f0e8">STAY IN ŠTIP</text>
      <rect x="328" width="150" height="150" fill="#a9b3aa"/><path d="M345 130h115V48H345Z" fill="#f5f0e8" opacity=".8"/><path d="M370 130V70h65v60" fill="#d9c29c"/>
      <rect y="164" width="150" height="150" fill="#f0e7d8"/><text x="75" y="225" text-anchor="middle" font-family="Arial,sans-serif" font-size="13" letter-spacing="2" fill="#1c2c29">MODERN</text><text x="75" y="255" text-anchor="middle" font-family="Georgia,serif" font-size="28" fill="#1c2c29">comfort</text>
      <rect x="164" y="164" width="150" height="150" fill="#6d8179"/><path d="m180 295 55-83 63 83Z" fill="#d9c29c"/><circle cx="260" cy="205" r="14" fill="#f5f0e8"/>
      <rect x="328" y="164" width="150" height="150" fill="#d9c29c"/><text x="403" y="225" text-anchor="middle" font-family="Georgia,serif" font-size="30" fill="#1c2c29">Book</text><text x="403" y="253" text-anchor="middle" font-family="Arial,sans-serif" font-size="11" letter-spacing="2" fill="#1c2c29">YOUR STAY</text>
      <rect y="328" width="150" height="150" fill="#536a62"/><path d="M16 450h118V354H16Z" fill="#edf0eb" opacity=".8"/><path d="M35 450V380h80v70" fill="#cbb690"/>
      <rect x="164" y="328" width="150" height="150" fill="#efe8dd"/><text x="239" y="388" text-anchor="middle" font-family="Georgia,serif" font-size="44" fill="#1c2c29">Štip</text><path d="M199 412h80" stroke="#c2a978" stroke-width="3"/><text x="239" y="445" text-anchor="middle" font-family="Arial,sans-serif" font-size="10" letter-spacing="2" fill="#536a62">CITY CENTRE</text>
      <rect x="328" y="328" width="150" height="150" fill="#b9aa92"/><path d="M328 478 410 365l68 87v26Z" fill="#28403b"/><circle cx="445" cy="365" r="18" fill="#f5f0e8"/>
    </g>
  </g>
</svg>
