<svg xmlns="http://www.w3.org/2000/svg" viewBox="0 0 128 128" role="img" aria-labelledby="title">
  <title id="title">Canva</title>
  <defs>
    <linearGradient id="g" x1="12" y1="14" x2="116" y2="114" gradientUnits="userSpaceOnUse">
      <stop offset="0" stop-color="#00C4CC"/>
      <stop offset=".52" stop-color="#7D2AE8"/>
      <stop offset="1" stop-color="#FF5ACD"/>
    </linearGradient>
    <filter id="s" x="-20%" y="-20%" width="140%" height="140%">
      <feDropShadow dx="0" dy="5" stdDeviation="6" flood-color="#7D2AE8" flood-opacity=".24"/>
    </filter>
  </defs>
  <rect x="10" y="10" width="108" height="108" rx="31" fill="url(#g)" filter="url(#s)"/>
  <path d="M83.5 45.5c-5.2-7-13-10.8-21.8-10.8-16.6 0-29.4 12.8-29.4 29.7 0 17 12.6 29.9 29.4 29.9 8.9 0 16.6-3.7 21.9-10.7l-9.5-7.3c-3.1 4-7.1 6-12.1 6-9.7 0-16.8-7.4-16.8-17.9 0-10.3 7.2-17.7 16.8-17.7 4.9 0 9 2 12 6.1z" fill="#fff"/>
</svg>
