<?xml version="1.0" encoding="UTF-8" standalone="no"?>
<!DOCTYPE svg PUBLIC "-//W3C//DTD SVG 1.1//EN" "http://www.w3.org/Graphics/SVG/1.1/DTD/svg11.dtd">
<svg width="100%" height="100%" viewBox="0 0 409 249" version="1.1" xmlns="http://www.w3.org/2000/svg" xmlns:xlink="http://www.w3.org/1999/xlink" xml:space="preserve" xmlns:serif="http://www.serif.com/" style="fill-rule:evenodd;clip-rule:evenodd;stroke-linejoin:round;stroke-miterlimit:2;">
    <g id="Background" transform="matrix(1,0,0,1,12,13)">
        <path d="M59.003,27.482C58.681,36.104 52.741,53.815 105.213,88.841C106.768,89.879 136.054,111.606 142.208,117.791C153.379,129.019 157.847,136.445 158.937,138.257C180.823,174.634 153.864,206.061 117.53,217.58C108.229,220.528 81.433,224.843 87.594,220.678C90.736,218.553 93.723,223.961 107.348,210.353C118.533,199.182 118.868,179.798 104.35,164.64C100.635,160.761 101.118,160.464 97.321,156.679C74.514,133.942 10.471,99.891 4.044,65.561C2.427,56.923 0.607,56.845 4.16,40.435C7.33,25.797 29.927,9.763 48.436,6.077C51.288,5.509 75.12,0.764 84.497,1.521C86.468,1.681 86.409,3.288 84.497,3.482C68.32,5.127 60.237,17.446 59.003,27.482Z" style="fill:white;fill-opacity:1;"/>
        <path d="M201.5,1.993C255.619,1.993 256.463,1.761 256.833,3.416C256.918,3.797 256.905,219.422 256.835,220.576C256.732,222.258 255.667,221.95 194.5,221.966C192.436,221.967 178.509,223.424 182.592,220.676C185.221,218.906 189.556,223.918 196.843,212.776C201.586,205.523 200.979,204.927 200.979,134.5C200.979,22.797 201.107,22.746 200.105,18.551C195.532,-0.588 177.968,4.787 182.592,1.676C183.847,0.831 184.018,1.954 201.5,1.993Z" style="fill:white;fill-opacity:1;"/>
        <path d="M387.001,124.49C383.488,164.758 360.315,187.179 356.169,193.214C355.722,193.864 333.837,215.034 309.564,219.918C291.249,223.604 291.115,221.228 272.501,222.478C272.084,222.506 264.068,223.044 267.592,220.675C271.872,217.798 279.928,227.464 303.29,199.326C303.604,198.947 324.755,171.751 327.22,128.466C327.362,125.966 328.016,126.087 328.079,122.495C328.801,81.972 323.71,74.396 321.088,61.563C318.391,48.368 308.323,32.549 306.844,30.226C283.644,-6.227 258.805,7.582 267.592,1.675C269.511,0.385 269.767,1.713 296.506,2.13C297.419,2.144 313.661,4.575 320.367,7.773C326.112,10.512 326.241,10.013 331.743,13.028C341.943,18.618 341.771,18.82 350.691,26.278C352.957,28.172 353.358,27.707 354.926,30.225C355.815,31.652 362.23,37.133 365.939,43.252C370.506,50.785 371.008,50.425 374.954,58.278C391.667,91.537 387.479,118.419 387.001,124.49Z" style="fill:white;fill-opacity:1;"/>
        <path d="M68.495,219.535C67.667,220.646 67.727,220.553 67.667,220.646C67.412,221.04 67.755,221.075 67.503,221.464C52.421,219.775 18.315,209.002 6.434,185.539C-8.611,155.826 20.712,118.713 55.757,140.061C64.361,145.302 69.565,158.278 69.794,161.46C71.043,178.764 66.533,185.802 55.696,196.689C48.3,204.119 51.255,215.951 68.495,219.535Z" style="fill:white;fill-opacity:1;"/>
        <path d="M128.497,5.996C146.714,6.64 146.336,4.039 150.461,2.413C154.118,0.971 152.571,4.475 152.858,51.5C152.868,53.168 153.959,63.188 151.602,61.359C151.451,61.241 148.934,49.419 143.022,38.752C140.53,34.255 126.501,12.449 108.431,6.658C103.568,5.099 103.655,4.869 98.503,4.474C95.952,4.278 95.014,1.41 97.514,2.201C98.656,2.562 110.419,4.029 111.544,4.169C120.114,5.238 119.962,5.686 128.497,5.996Z" style="fill:white;fill-opacity:0.98;"/>
        <path d="M68.495,219.535C74.719,221.217 75.836,220.129 75.836,221.5C75.836,222.167 75.629,223.612 67.503,221.464C67.755,221.075 67.412,221.04 67.667,220.646C67.727,220.553 67.667,220.646 68.495,219.535Z" style="fill:rgb(230,230,230);fill-opacity:0.22;"/>
        <path d="M77.577,222.308C77.577,220.993 77.189,220.419 78.5,220.501C78.662,220.511 81.324,222.076 77.577,222.308Z" style="fill:rgb(222,222,222);fill-opacity:0.11;"/>
    </g>
</svg>
